<svg id="Layer_1" data-name="Layer 1" xmlns="http://www.w3.org/2000/svg" viewBox="0 0 369.0398 110.0831">
  <g>
    <g>
      <g>
        <rect y="101.2125" width="369.0178" height="8.8705" style="fill: #00a887"/>
        <rect x="196.6674" y="101.2188" width="58.5182" height="8.8643" style="fill: #88c873"/>
        <rect x="20.7675" y="101.2188" width="45.0741" height="8.8643" style="fill: #88c873"/>
        <rect x="269.577" y="101.2188" width="28.1442" height="8.8643" style="fill: #0096a6"/>
        <rect x="338.0119" y="101.2188" width="21.4216" height="8.8643" style="fill: #0096a6"/>
        <rect x="89.0864" y="101.2188" width="103.4079" height="8.8643" style="fill: #0096a6"/>
        <rect x="292.8466" y="101.2188" width="8.494" height="8.8643" style="fill: #0072bc"/>
        <polygon points="104.562 110.083 77.939 110.083 77.737 101.219 104.562 101.219 104.562 110.083" style="fill: #0072bc"/>
      </g>
      <path d="M1.2277,95.26V85.35c1.1107.0815,19.9971,1.9642,29.3979,1.9642,8.3732-.091,16.7526-.6025,16.7526-7.1792,0-3.3324-2.99-4.7915-7.3519-5.64-4.4414-.8575-10.34-1.0308-16.3258-1.7949C12.8484,71.3324.8826,68.6785.8826,55.3453.7978,37.83,18.236,35.949,34.8113,35.949c10.7688,0,26.3213,1.7957,27.1779,1.8811v9.74a250.5584,250.5584,0,0,0-25.4661-1.535c-6.07,0-16.2365.2564-16.2365,6.8379.0846,3.0759,2.8209,4.5349,6.6615,5.3813,3.8485.77,8.8031.9428,13.3324,1.4536,11.7949,1.1962,25.9808,3.1613,26.0655,17.6061,0,16.8373-18.4579,19.8213-31.8735,19.8213C20.5407,97.226,2.1659,95.3465,1.2277,95.26" transform="translate(-0.7782 -1.3933)" style="fill: #0072bc"/>
      <path d="M90.1053,46.2912V66.5471h19.1436c8.2053,0,11.28-2.9965,11.28-10.5147,0-7.7769-5.1287-9.7412-11.45-9.7412Zm0,29.8222V96.5389H71.8168v-59.82h39.0544c5.8974,0,12.479.1727,17.7786,2.2209,6.1533,2.394,10.5947,7.2623,10.5947,17.2663,0,17.1762-12.9025,19.9076-25.2936,19.9076Z" transform="translate(-0.7782 -1.3933)" style="fill: #0072bc"/>
      <polygon points="185.061 78.619 152.521 78.619 145.137 95.152 127.013 95.152 156.413 35.325 184.782 35.325 212.818 95.152 191.961 95.152 185.061 78.619" style="fill: #0072bc"/>
      <path d="M235.645,46.2018V66.4594h19.65c4.2784,0,10.9416-1.0245,10.9416-10.3407,0-8.6344-6.07-9.9169-11.1972-9.9169Zm14.098,29.747H235.645v20.59H217.3532v-59.82h38.2025c2.99,0,6.3243,0,9.6566.1727,10.4251.68,20.4238,3.7582,20.4238,16.8325,0,12.2233-7.9465,15.7281-16.4921,17.0116l-.5994,1.7908,20.2543,24.0127h-24.186Z" transform="translate(-0.7782 -1.3933)" style="fill: #0072bc"/>
      <polygon points="347.162 35.325 313.573 62.504 311.264 62.504 311.264 35.325 292.549 35.325 292.549 95.146 311.264 95.146 311.264 67.373 313.746 67.373 342.97 95.146 369.04 95.146 331.859 62.754 366.732 35.325 347.162 35.325" style="fill: #0072bc"/>
      <path d="M175.6742,61.3111s18.5316,1.8669,18.6336,1.0863a1.0843,1.0843,0,0,0,.0111-.19c0-.7061-19.4527-3.876-19.4527-3.876S198.7933,45.66,198.4434,44.9553c-.3546-.7044-24.1719,10.492-24.1719,10.492s7.9575-13.6141,7.55-13.8847c-.6558-.4394-10.9352,13.8251-10.9352,13.8251s-5.5915-27.7122-6.3681-27.5662c-.77.13,3.55,27.9426,3.55,27.9426S150.2315,38.0859,149.6636,38.63c-.2919.2854,16.4168,19.1757,16.4168,19.1757s-14.0714,1.84-13.9977,2.6209c.0628.79,13.2352.3043,13.2352.3043s-28.8691,20.8678-28.4157,21.5127c.4487.6463,29.9-19.0817,29.9-19.0817S159.05,84.43,159.6071,84.65c.72.2982,10.1963-21.3172,10.1963-21.3172s3.4939,10.1851,4.25,9.9764c.6291-.1678-1.4763-10.6245-1.4763-10.6245s27.7159,17.58,28.1521,16.9244c.4346-.6511-25.0551-18.2978-25.0551-18.2978" transform="translate(-0.7782 -1.3933)" style="fill: #eab649"/>
    </g>
    <g>
      <path d="M7.2208,1.6208h4.397L17.19,28.9865h-3.79l-1.2505-6.9741H6.2355l-1.251,6.9741h-3.79Zm-.417,17.2075h4.814l-2.35-13.19H9.192Z" transform="translate(-0.7782 -1.3933)" style="fill: #0072bc"/>
      <path d="M19.0075,1.6208h5.23l4.4727,22.7417h.0757V1.6208h3.563V28.9865H26.8912L22.4186,5.6384h-.0757V28.9865H19.0075Z" transform="translate(-0.7782 -1.3933)" style="fill: #0072bc"/>
      <path d="M35.153,1.6208h5.23l4.4727,22.7417h.0757V1.6208h3.563V28.9865h-5.458L38.5641,5.6384h-.0757V28.9865H35.153Z" transform="translate(-0.7782 -1.3933)" style="fill: #0072bc"/>
      <path d="M61.9869,1.6208h4.397l5.5718,27.3657h-3.79l-1.251-6.9741H61.0016l-1.251,6.9741h-3.79ZM61.57,18.8283h4.8139l-2.35-13.19h-.0757Z" transform="translate(-0.7782 -1.3933)" style="fill: #0072bc"/>
      <path d="M73.7736,1.6208h5.875c5.5337,0,6.1025,1.478,6.1025,7.4668,0,3.6763-.4932,5.2686-3.6011,6.2158V15.38c2.5777.2651,3.4493,1.5918,3.4493,4.169v5.9506a18.763,18.763,0,0,0,.2275,3.4873h-3.563a4.7035,4.7035,0,0,1-.4546-2.4638V20.3449c0-2.5776-.4551-3.26-2.9565-3.26H77.5641V28.9865h-3.79Zm3.79,12.28h.9853c2.9942,0,3.4112-.5684,3.4112-4.6621,0-4.0552-.2276-4.4346-2.5772-4.4346H77.5641Z" transform="translate(-0.7782 -1.3933)" style="fill: #0072bc"/>
      <path d="M88.5167,1.6208h6.5952c4.6622,0,5.4581,1.63,5.4581,6.6328,0,5.3824-.8716,6.2539-3.4493,6.5952v.0757c3.0323.5689,3.6387,1.5918,3.6387,6.2539,0,5.9131-.7583,7.8081-6.292,7.8081H88.5167Zm3.7906,11.75h2.1982c2.2739,0,2.5015-.4546,2.5015-4.9272,0-3.1079-.4927-3.8657-2.9185-3.8657H92.3073Zm0,12.66h2.35c2.1606,0,2.54-.644,2.54-4.9653,0-4.1314-.3408-4.7378-2.4258-4.7378H92.3073Z" transform="translate(-0.7782 -1.3933)" style="fill: #0072bc"/>
      <path d="M103.1461,8.5949c0-3.8281,1.251-7.2016,6.4058-7.2016,4.89,0,6.4433,2.54,6.4433,6.7846V22.0124c0,3.8281-1.2509,7.2017-6.4433,7.2017-4.8516,0-6.4058-2.54-6.4058-6.7847Zm3.7906,14.062c0,2.35,1.061,3.6006,2.6152,3.6006,1.5918,0,2.6533-1.2509,2.6533-3.6006V8.2917c0-2.6914-.91-3.9419-2.6533-3.9419-1.7056,0-2.6152,1.25-2.6152,3.9419Z" transform="translate(-0.7782 -1.3933)" style="fill: #0072bc"/>
      <path d="M118.6857,1.6208h5.875c5.5337,0,6.1025,1.478,6.1025,7.4668,0,3.6763-.4931,5.2686-3.6011,6.2158V15.38c2.5777.2651,3.4493,1.5918,3.4493,4.169v5.9506a18.763,18.763,0,0,0,.2275,3.4873h-3.563a4.7035,4.7035,0,0,1-.4546-2.4638V20.3449c0-2.5776-.4551-3.26-2.9565-3.26h-1.2886V28.9865h-3.7905Zm3.7905,12.28h.9854c2.9941,0,3.4111-.5684,3.4111-4.6621,0-4.0552-.2275-4.4346-2.5772-4.4346h-1.8193Z" transform="translate(-0.7782 -1.3933)" style="fill: #0072bc"/>
    </g>
  </g>
</svg>
